HIERARCHY
ROOT Hips
{
	OFFSET 0.00000 0.00000 0.00000
	CHANNELS 6 Xposition Yposition Zposition Zrotation Yrotation Xrotation 
	JOINT LHipJoint
	{
		OFFSET 0 0 0
		CHANNELS 3 Zrotation Yrotation Xrotation
		JOINT LeftUpLeg
		{
			OFFSET 1.59801 -1.77853 0.57028
			CHANNELS 3 Zrotation Yrotation Xrotation
			JOINT LeftLeg
			{
				OFFSET 2.39439 -6.57854 0.00000
				CHANNELS 3 Zrotation Yrotation Xrotation
				JOINT LeftFoot
				{
					OFFSET 2.69334 -7.39989 0.00000
					CHANNELS 3 Zrotation Yrotation Xrotation
					JOINT LeftToeBase
					{
						OFFSET 0.09553 -0.26245 1.73747
						CHANNELS 3 Zrotation Yrotation Xrotation
						End Site
						{
							OFFSET 0.00000 -0.00000 0.89391
						}
					}
				}
			}
		}
	}
	JOINT RHipJoint
	{
		OFFSET 0 0 0
		CHANNELS 3 Zrotation Yrotation Xrotation
		JOINT RightUpLeg
		{
			OFFSET -1.54704 -1.77852 0.57028
			CHANNELS 3 Zrotation Yrotation Xrotation
			JOINT RightLeg
			{
				OFFSET -2.40286 -6.60180 0.00000
				CHANNELS 3 Zrotation Yrotation Xrotation
				JOINT RightFoot
				{
					OFFSET -2.63873 -7.24984 0.00000
					CHANNELS 3 Zrotation Yrotation Xrotation
					JOINT RightToeBase
					{
						OFFSET -0.15631 -0.42945 1.84436
						CHANNELS 3 Zrotation Yrotation Xrotation
						End Site
						{
							OFFSET -0.00000 -0.00000 0.95734
						}
					}
				}
			}
		}
	}
	JOINT LowerBack
	{
		OFFSET 0 0 0
		CHANNELS 3 Zrotation Yrotation Xrotation
		JOINT Spine
		{
			OFFSET -0.00436 1.89866 -0.04018
			CHANNELS 3 Zrotation Yrotation Xrotation
			JOINT Spine1
			{
				OFFSET 0.02031 1.88273 0.09634
				CHANNELS 3 Zrotation Yrotation Xrotation
				JOINT Neck
				{
					OFFSET 0 0 0
					CHANNELS 3 Zrotation Yrotation Xrotation
					JOINT Neck1
					{
						OFFSET -0.13105 1.89371 0.23083
						CHANNELS 3 Zrotation Yrotation Xrotation
						JOINT Head
						{
							OFFSET 0.17062 1.83990 -0.54062
							CHANNELS 3 Zrotation Yrotation Xrotation
							End Site
							{
								OFFSET 0.04576 1.94782 -0.21839
							}
						}
					}
				}
				JOINT LeftShoulder
				{
					OFFSET 0 0 0
					CHANNELS 3 Zrotation Yrotation Xrotation
					JOINT LeftArm
					{
						OFFSET 3.12424 1.09204 0.22226
						CHANNELS 3 Zrotation Yrotation Xrotation
						JOINT LeftForeArm
						{
							OFFSET 5.29277 -0.00000 0.00000
							CHANNELS 3 Zrotation Yrotation Xrotation
							JOINT LeftHand
							{
								OFFSET 2.85226 -0.00000 0.00000
								CHANNELS 3 Zrotation Yrotation Xrotation
								JOINT LeftFingerBase
								{
									OFFSET 0 0 0
									CHANNELS 3 Zrotation Yrotation Xrotation
									JOINT LeftHandIndex1
									{
										OFFSET 0.60210 -0.00000 0.00000
										CHANNELS 3 Zrotation Yrotation Xrotation
										End Site
										{
											OFFSET 0.48543 -0.00000 0.00000
										}
									}
								}
								JOINT LThumb
								{
									OFFSET 0 0 0
									CHANNELS 3 Zrotation Yrotation Xrotation
									End Site
									{
										OFFSET 0.49284 -0.00000 0.49284
									}
								}
							}
						}
					}
				}
				JOINT RightShoulder
				{
					OFFSET 0 0 0
					CHANNELS 3 Zrotation Yrotation Xrotation
					JOINT RightArm
					{
						OFFSET -2.91709 1.01504 0.30199
						CHANNELS 3 Zrotation Yrotation Xrotation
						JOINT RightForeArm
						{
							OFFSET -5.13304 -0.00000 0.00000
							CHANNELS 3 Zrotation Yrotation Xrotation
							JOINT RightHand
							{
								OFFSET -2.74305 -0.00000 0.00000
								CHANNELS 3 Zrotation Yrotation Xrotation
								JOINT RightFingerBase
								{
									OFFSET 0 0 0
									CHANNELS 3 Zrotation Yrotation Xrotation
									JOINT RightHandIndex1
									{
										OFFSET -0.76798 -0.00000 0.00000
										CHANNELS 3 Zrotation Yrotation Xrotation
										End Site
										{
											OFFSET -0.61916 -0.00000 0.00000
										}
									}
								}
								JOINT RThumb
								{
									OFFSET 0 0 0
									CHANNELS 3 Zrotation Yrotation Xrotation
									End Site
									{
										OFFSET -0.62862 -0.00000 0.62862
									}
								}
							}
						}
					}
				}
			}
		}
	}
}
MOTION
Frames: 5
Frame Time: .0083333
0.1482 17.3633 -0.2425 0 0 0 0 0 0 -21 0 0 0 0 0 0 0 0 0 0 0 0 0 0 21 0 0 0 0 0 0 0 0 0 0 0 0 0 0 0 0 0 0 0 0 0 0 -16 0 0 21 0 0 11 0 0 0 -8 0 0 0 0 0 0 0 0 0 0 0 0 0 0 0 0 0 0 0 0 8 0 0 0 0 0 0 0 0 0 0 0 0 0 0 0 0 0
0.1482 17.3633 -0.2425 0.2163 2.6089 -0.9982 0.0000 0.0000 0.0000 -22.2880 -19.4948 9.3458 0.5721 4.8437 13.4634 0.3125 9.2768 -17.6986 1.3554 -7.3697 -20.8155 0.0000 0.0000 0.0000 19.1539 7.5900 14.2821 0.0000 -0.0000 0.0000 -0.0125 -9.0938 -13.1810 -0.9858 6.3198 -17.7153 -3.2588 -0.7684 -5.4178 0.1295 -0.8406 -1.1142 1.9030 -0.4366 1.9386 -23.7381 -9.6902 9.2273 18.1677 -17.2530 16.8922 8.9820 -9.2916 7.3240 0.0000 0.0000 0.0000 -84.8918 -25.3321 43.3341 153.6734 -37.5294 -110.9141 -0.0000 0.0000 -13.1369 -21.4705 35.9546 -13.0035 -7.1250 0.0000 -0.0000 -58.6176 56.3790 -21.3371 0.0000 0.0000 0.0000 80.8534 19.7093 28.8363 -153.8851 37.3220 -111.0428 0.0000 0.0000 13.7238 26.9068 12.1159 6.0799 7.1250 -0.0000 -0.0000 34.6085 -16.6417 29.2587
0.1508 17.3634 -0.2432 0.1370 2.3997 -0.9843 0.0000 0.0000 0.0000 -22.1903 -19.3133 9.2318 0.5797 4.8752 13.5531 0.3211 9.2497 -17.7733 1.3706 -7.4091 -20.9331 0.0000 0.0000 0.0000 19.2521 7.8035 14.3007 0.0000 -0.0000 0.0000 -0.0082 -9.1123 -13.1320 -1.0010 6.3667 -17.8523 -3.1188 -0.7214 -5.3760 0.1684 -0.7885 -1.1191 1.8686 -0.4094 1.9059 -23.6133 -9.7619 9.1340 18.0828 -17.2954 16.7613 8.9157 -9.2996 7.2875 -0.0000 0.0000 0.0000 -85.3028 -24.5580 44.3782 154.2862 -36.9247 -111.2849 -0.0000 0.0000 -13.0874 -20.8134 35.6116 -12.4809 -7.1250 0.0000 -0.0000 -57.6939 56.3079 -20.7051 -0.0000 0.0000 0.0000 81.0565 20.5554 28.8732 -154.8570 36.3498 -111.6255 0.0000 0.0000 12.6963 26.0968 12.0304 5.8294 7.1250 -0.0000 -0.0000 34.2428 -16.8594 28.5572
0.1539 17.3639 -0.2418 0.1747 2.1779 -0.9371 0.0000 0.0000 0.0000 -22.2282 -19.1081 9.1378 0.5812 4.8817 13.5715 0.3263 9.2396 -17.8246 1.3753 -7.4213 -20.9696 0.0000 0.0000 0.0000 19.2096 8.0408 14.3026 0.0000 -0.0000 0.0000 -0.0079 -9.1104 -13.1229 -1.0343 6.4687 -18.1505 -3.1905 -0.7357 -5.3592 0.2574 -0.8058 -1.1078 1.9995 -0.4188 1.9114 -23.5417 -9.8430 8.8532 17.9282 -17.3048 16.6517 8.8238 -9.2867 7.2816 0.0000 -0.0000 0.0000 -85.8777 -23.7426 45.1983 154.7311 -36.4776 -111.5508 -0.0000 0.0000 -13.3112 -20.3934 35.3565 -12.1408 -7.1250 0.0000 -0.0000 -57.0640 56.2375 -20.2495 0.0000 -0.0000 0.0000 81.2036 21.4013 29.0443 -155.7679 35.4087 -112.1594 0.0000 0.0000 11.6473 25.5068 11.9539 5.6438 7.1250 -0.0000 -0.0000 33.9745 -17.0249 28.0476
0.1563 17.3639 -0.2394 0.1709 2.0002 -0.8466 0.0000 0.0000 0.0000 -22.2000 -18.9702 8.9962 0.5841 4.8934 13.6048 0.3375 9.2029 -17.9184 1.3685 -7.4038 -20.9173 0.0000 0.0000 0.0000 19.2085 8.2495 14.2463 0.0000 -0.0000 0.0000 -0.0077 -9.1103 -13.1207 -1.0354 6.4719 -18.1600 -3.2273 -0.7769 -5.3491 0.3434 -0.8611 -1.1208 2.1051 -0.4464 1.8974 -23.5073 -9.9129 8.4935 17.8801 -17.3107 16.5899 8.7739 -9.2678 7.3167 0.0000 0.0000 0.0000 -86.4739 -22.8607 45.9385 155.0760 -36.1262 -111.7550 -0.0000 0.0000 -13.5956 -20.1324 35.1495 -11.9174 -7.1250 0.0000 -0.0000 -56.6191 56.1616 -19.8928 0.0000 0.0000 0.0000 81.4315 22.0872 29.2846 -156.6673 34.4506 -112.6744 0.0000 0.0000 10.5632 25.2475 11.7452 5.4833 7.1250 -0.0000 -0.0000 33.8972 -17.2540 27.7268
